<?xml version="1.0" encoding="UTF-8"?>
<svg version="1.1" xmlns="http://www.w3.org/2000/svg" width="165" height="228">
<path d="M0 0 C17.51220275 14.26755605 29.02195162 33.37239878 32 56 C33.54718808 78.78341888 28.75062287 100.81086738 13.64257812 118.59814453 C9.32671294 123.46886484 4.79637628 128.13919129 0.27734375 132.8203125 C-18.03586082 152.18538007 -32.03842129 175.29632109 -44 199 C-44.31614258 199.62390625 -44.63228516 200.2478125 -44.95800781 200.890625 C-46.65794687 204.25101139 -48.33932851 207.62004508 -50 211 C-52.54048411 208.7286369 -53.82856083 206.58757113 -55.20703125 203.484375 C-55.82843994 202.11949951 -55.82843994 202.11949951 -56.46240234 200.72705078 C-56.90793457 199.74462402 -57.3534668 198.76219727 -57.8125 197.75 C-69.76578352 172.16585005 -85.95826706 147.47503977 -106.34765625 127.73046875 C-109 125 -109 125 -109 123 C-109.66 123 -110.32 123 -111 123 C-121.84635317 111.40770805 -129.22143619 96.61744487 -132 81 C-132.3403125 79.1128125 -132.3403125 79.1128125 -132.6875 77.1875 C-135.05657135 52.74069988 -129.01335482 31.4594 -113.7578125 12.1640625 C-85.20373062 -21.25825629 -35.10898932 -25.70133196 0 0 Z " fill="#0199FE" transform="translate(133,17)"/>
<path d="M0 0 C1.47700882 -0.01902626 1.47700882 -0.01902626 2.9838562 -0.03843689 C4.04637604 -0.03550125 5.10889587 -0.03256561 6.20361328 -0.02954102 C7.84416183 -0.03740379 7.84416183 -0.03740379 9.51785278 -0.04542542 C11.83285676 -0.0518526 14.14789336 -0.05049967 16.46289062 -0.04199219 C20.00336045 -0.03349661 23.54220979 -0.06221265 27.08251953 -0.09399414 C29.33121696 -0.09560658 31.57991725 -0.09502781 33.82861328 -0.09204102 C35.41632034 -0.10889198 35.41632034 -0.10889198 37.03610229 -0.12608337 C41.51485929 -0.08368582 44.36115743 -0.04429895 48.30566406 2.20068359 C50.77937131 5.15766478 50.93056051 7.61905473 51.14892578 11.40405273 C51.80892578 11.40405273 52.46892578 11.40405273 53.14892578 11.40405273 C53.31328125 12.27416992 53.31328125 12.27416992 53.48095703 13.16186523 C55.15358427 21.53978895 55.15358427 21.53978895 60.21948242 28.203125 C62.7092899 31.04326348 62.65169847 32.5705494 62.64501953 36.30639648 C62.64566406 37.44399414 62.64630859 38.5815918 62.64697266 39.75366211 C62.62699219 40.93766602 62.60701172 42.12166992 62.58642578 43.34155273 C62.59351562 44.52168945 62.60060547 45.70182617 62.60791016 46.91772461 C62.56433498 52.84059606 62.43199599 56.37058238 59.14892578 61.40405273 C58.73441676 64.24981659 58.64960048 67.00853072 58.55517578 69.88061523 C58.14892578 72.40405273 58.14892578 72.40405273 56.87158203 74.21655273 C53.68396524 76.41391216 50.92309787 75.76349769 47.14892578 75.40405273 C45.14892578 72.40405273 45.14892578 72.40405273 45.14892578 62.40405273 C28.64892578 62.40405273 12.14892578 62.40405273 -4.85107422 62.40405273 C-4.85107422 65.70405273 -4.85107422 69.00405273 -4.85107422 72.40405273 C-7.85107422 75.40405273 -7.85107422 75.40405273 -11.35107422 75.77905273 C-14.85107422 75.40405273 -14.85107422 75.40405273 -16.53466797 74.26342773 C-18.39968028 71.62916702 -18.29420406 69.47509245 -18.41357422 66.27905273 C-18.49621509 63.12201922 -18.49621509 63.12201922 -18.85107422 60.40405273 C-19.51107422 60.07405273 -20.17107422 59.74405273 -20.85107422 59.40405273 C-22.56976656 54.24797572 -22.0356789 48.80091823 -22.03857422 43.40405273 C-22.05082031 42.20264648 -22.06306641 41.00124023 -22.07568359 39.76342773 C-22.07761719 38.61358398 -22.07955078 37.46374023 -22.08154297 36.27905273 C-22.08565186 35.22459961 -22.08976074 34.17014648 -22.09399414 33.08374023 C-21.85107422 30.40405273 -21.85107422 30.40405273 -19.85107422 27.40405273 C-18.86107422 27.07405273 -17.87107422 26.74405273 -16.85107422 26.40405273 C-15.89246776 24.58099343 -15.89246776 24.58099343 -15.28857422 22.34155273 C-14.91345703 21.12338867 -14.91345703 21.12338867 -14.53076172 19.88061523 C-13.92345956 17.66780164 -13.40661063 15.45684098 -12.91357422 13.21655273 C-10.99886038 6.34610897 -7.57982592 0.04726324 0 0 Z " fill="#F5FBFF" transform="translate(62.85107421875,49.595947265625)"/>
<path d="M0 0 C0.85421036 -0.00307663 1.70842072 -0.00615326 2.58851624 -0.00932312 C3.50733078 -0.0021376 4.42614532 0.00504791 5.37280273 0.01245117 C6.79096535 0.0131385 6.79096535 0.0131385 8.23777771 0.01383972 C10.23584244 0.01686039 12.23390486 0.02474116 14.23193359 0.03710938 C17.29785459 0.05536905 20.36347366 0.05761901 23.42944336 0.05737305 C25.36889911 0.06228818 27.3083528 0.06811648 29.24780273 0.07495117 C30.16864151 0.076064 31.08948029 0.07717682 32.03822327 0.07832336 C32.88928146 0.08470322 33.74033966 0.09108307 34.6171875 0.09765625 C35.74278831 0.10337395 35.74278831 0.10337395 36.89112854 0.10920715 C38.74389648 0.24291992 38.74389648 0.24291992 40.74389648 1.24291992 C41.34155273 3.27416992 41.34155273 3.27416992 41.80639648 5.74291992 C42.20254491 8.78065213 42.20254491 8.78065213 43.74389648 11.24291992 C43.74389648 13.22291992 43.74389648 15.20291992 43.74389648 17.24291992 C25.92389648 17.24291992 8.10389648 17.24291992 -10.25610352 17.24291992 C-10.25610352 10.39676608 -10.25610352 10.39676608 -8.94360352 6.49291992 C-8.6999707 5.73495117 -8.45633789 4.97698242 -8.20532227 4.19604492 C-6.38663954 0.4538994 -3.80388904 -0.00721597 0 0 Z " fill="#0B9DFF" transform="translate(66.256103515625,57.757080078125)"/>
<path d="M0 0 C3.375 -0.125 3.375 -0.125 7 0 C9 2 9 2 9.3125 5.9375 C9.23015998 8.45344502 9.10091012 9.80411565 7.9375 12.0625 C4.7970884 13.582054 2.29352683 12.79288609 -1 12 C-2.60725635 8.78548731 -2.05748185 5.56387464 -2 2 C-1.34 2 -0.68 2 0 2 C0 1.34 0 0.68 0 0 Z " fill="#1BA3FF" transform="translate(52,87)"/>
<path d="M0 0 C1.91015625 0.1328125 1.91015625 0.1328125 3.91015625 1.1328125 C4.03515625 8.8828125 4.03515625 8.8828125 2.91015625 11.1328125 C1.1328125 11.6171875 1.1328125 11.6171875 -1.02734375 11.8828125 C-1.73761719 11.98078125 -2.44789062 12.07875 -3.1796875 12.1796875 C-5.08984375 12.1328125 -5.08984375 12.1328125 -7.08984375 10.1328125 C-7.3203125 8.00390625 -7.3203125 8.00390625 -7.27734375 5.5703125 C-7.27089844 4.76464844 -7.26445313 3.95898438 -7.2578125 3.12890625 C-6.89043919 -1.2368556 -3.67335712 0.01333342 0 0 Z " fill="#16A2FF" transform="translate(112.08984375,87.8671875)"/>
<path d="M0 0 C0.85421036 -0.00307663 1.70842072 -0.00615326 2.58851624 -0.00932312 C3.50733078 -0.0021376 4.42614532 0.00504791 5.37280273 0.01245117 C6.79096535 0.0131385 6.79096535 0.0131385 8.23777771 0.01383972 C10.23584244 0.01686039 12.23390486 0.02474116 14.23193359 0.03710938 C17.29785459 0.05536905 20.36347366 0.05761901 23.42944336 0.05737305 C25.36889911 0.06228818 27.3083528 0.06811648 29.24780273 0.07495117 C30.16864151 0.076064 31.08948029 0.07717682 32.03822327 0.07832336 C32.88928146 0.08470322 33.74033966 0.09108307 34.6171875 0.09765625 C35.74278831 0.10337395 35.74278831 0.10337395 36.89112854 0.10920715 C38.74389648 0.24291992 38.74389648 0.24291992 40.74389648 1.24291992 C41.15118876 3.56448589 41.48828325 5.89979862 41.74389648 8.24291992 C41.08389648 7.91291992 40.42389648 7.58291992 39.74389648 7.24291992 C39.74389648 5.59291992 39.74389648 3.94291992 39.74389648 2.24291992 C33.81741075 2.1688246 27.89119396 2.11434376 21.96435547 2.078125 C19.94770614 2.06302813 17.93108969 2.04254877 15.91455078 2.01660156 C13.01773978 1.98025781 10.12136242 1.96320273 7.22436523 1.94995117 C6.32115036 1.93446732 5.41793549 1.91898346 4.48735046 1.9030304 C3.64670547 1.9028038 2.80606049 1.90257721 1.93994141 1.90234375 C0.83074593 1.892351 0.83074593 1.892351 -0.30085754 1.88215637 C-2.83755304 2.35020351 -3.68565045 3.23044807 -5.25610352 5.24291992 C-5.58610352 6.23291992 -5.91610352 7.22291992 -6.25610352 8.24291992 C-6.91610352 8.24291992 -7.57610352 8.24291992 -8.25610352 8.24291992 C-7.94360352 5.36791992 -7.94360352 5.36791992 -7.25610352 2.24291992 C-4.15632747 0.17640256 -3.50630316 -0.00665145 0 0 Z " fill="#3EB2FF" transform="translate(66.256103515625,57.757080078125)"/>
</svg>
