<?xml version="1.0" encoding="UTF-8"?>
<svg version="1.1" xmlns="http://www.w3.org/2000/svg" width="165" height="228">
<path d="M0 0 C17.51220275 14.26755605 29.02195162 33.37239878 32 56 C33.54718808 78.78341888 28.75062287 100.81086738 13.64257812 118.59814453 C9.32671294 123.46886484 4.79637628 128.13919129 0.27734375 132.8203125 C-18.03586082 152.18538007 -32.03842129 175.29632109 -44 199 C-44.31614258 199.62390625 -44.63228516 200.2478125 -44.95800781 200.890625 C-46.65794687 204.25101139 -48.33932851 207.62004508 -50 211 C-52.54048411 208.7286369 -53.82856083 206.58757113 -55.20703125 203.484375 C-55.82843994 202.11949951 -55.82843994 202.11949951 -56.46240234 200.72705078 C-56.90793457 199.74462402 -57.3534668 198.76219727 -57.8125 197.75 C-69.76578352 172.16585005 -85.95826706 147.47503977 -106.34765625 127.73046875 C-109 125 -109 125 -109 123 C-109.66 123 -110.32 123 -111 123 C-121.84635317 111.40770805 -129.22143619 96.61744487 -132 81 C-132.3403125 79.1128125 -132.3403125 79.1128125 -132.6875 77.1875 C-135.05657135 52.74069988 -129.01335482 31.4594 -113.7578125 12.1640625 C-85.20373062 -21.25825629 -35.10898932 -25.70133196 0 0 Z " fill="#0199FE" transform="translate(133,17)"/>
<path d="M0 0 C18.15 0 36.3 0 55 0 C56.32 3.96 57.64 7.92 59 12 C60.96822886 13.96822886 64.34808709 13.66248381 67 14 C67.495 16.475 67.495 16.475 68 19 C65.02637075 20.48681463 61.99632817 20.13869315 58.73632812 20.12939453 C57.61417152 20.13202301 57.61417152 20.13202301 56.46934509 20.13470459 C53.98995665 20.13911532 51.51063921 20.13618785 49.03125 20.1328125 C47.31254055 20.13348576 45.59383119 20.13445598 43.87512207 20.13571167 C40.27041722 20.13718759 36.66573713 20.13503748 33.06103516 20.13037109 C28.43376953 20.12467387 23.8065619 20.12795344 19.1792984 20.13394356 C15.62949179 20.13755202 12.07969899 20.13640927 8.52989197 20.13381577 C6.82339979 20.13314729 5.11690637 20.13397217 3.41041565 20.13629532 C1.02813378 20.1388265 -1.35405334 20.13497464 -3.73632812 20.12939453 C-4.44600235 20.13141876 -5.15567657 20.13344299 -5.88685608 20.13552856 C-10.77147094 20.11426453 -10.77147094 20.11426453 -13 19 C-12.67 17.35 -12.34 15.7 -12 14 C-8.535 13.505 -8.535 13.505 -5 13 C-4.35309078 11.3962669 -3.70751236 9.79199694 -3.0625 8.1875 C-2.70285156 7.29417969 -2.34320313 6.40085937 -1.97265625 5.48046875 C-1.26386514 3.6729091 -0.6139753 1.84192591 0 0 Z " fill="#FDFEFF" transform="translate(55,101)"/>
<path d="M0 0 C2.55395487 -0.26711404 4.86274374 -0.34849029 7.4140625 -0.29296875 C8.50852188 -0.28660149 8.50852188 -0.28660149 9.62509155 -0.28010559 C11.95876759 -0.26329353 14.2915844 -0.22563868 16.625 -0.1875 C18.20571671 -0.17245634 19.78644693 -0.15876738 21.3671875 -0.14648438 C25.24512344 -0.11338201 29.12241598 -0.06158404 33 0 C33 0.99 33 1.98 33 3 C33.66 3 34.32 3 35 3 C36.32 8.28 37.64 13.56 39 19 C24.15 19 9.3 19 -6 19 C-2 3 -2 3 0 0 Z " fill="#F6FBFF" transform="translate(66,73)"/>
<path d="M0 0 C3.55363629 2.36909086 4.08860158 3.91848613 5.6875 7.8125 C6.34298828 9.36904297 6.34298828 9.36904297 7.01171875 10.95703125 C8 14 8 14 8 19 C0.08 19 -7.84 19 -16 19 C-12.09010459 4.66371681 -12.09010459 4.66371681 -8 0 C-4.65649854 -1.11450049 -3.33342063 -0.91669067 0 0 Z " fill="#F5FBFF" transform="translate(86,45)"/>
<path d="M0 0 C0.66 0.33 1.32 0.66 2 1 C2 1.99 2 2.98 2 4 C-6.58 4 -15.16 4 -24 4 C-24 3.34 -24 2.68 -24 2 C-16.08 2 -8.16 2 0 2 C0 1.34 0 0.68 0 0 Z " fill="#49B6FF" transform="translate(94,62)"/>
</svg>
