<?xml version="1.0" encoding="UTF-8"?>
<svg version="1.1" xmlns="http://www.w3.org/2000/svg" width="165" height="228">
<path d="M0 0 C17.51220275 14.26755605 29.02195162 33.37239878 32 56 C33.54718808 78.78341888 28.75062287 100.81086738 13.64257812 118.59814453 C9.32671294 123.46886484 4.79637628 128.13919129 0.27734375 132.8203125 C-18.03586082 152.18538007 -32.03842129 175.29632109 -44 199 C-44.31614258 199.62390625 -44.63228516 200.2478125 -44.95800781 200.890625 C-46.65794687 204.25101139 -48.33932851 207.62004508 -50 211 C-52.54048411 208.7286369 -53.82856083 206.58757113 -55.20703125 203.484375 C-55.82843994 202.11949951 -55.82843994 202.11949951 -56.46240234 200.72705078 C-56.90793457 199.74462402 -57.3534668 198.76219727 -57.8125 197.75 C-69.76578352 172.16585005 -85.95826706 147.47503977 -106.34765625 127.73046875 C-109 125 -109 125 -109 123 C-109.66 123 -110.32 123 -111 123 C-121.84635317 111.40770805 -129.22143619 96.61744487 -132 81 C-132.3403125 79.1128125 -132.3403125 79.1128125 -132.6875 77.1875 C-135.05657135 52.74069988 -129.01335482 31.4594 -113.7578125 12.1640625 C-85.20373062 -21.25825629 -35.10898932 -25.70133196 0 0 Z " fill="#0199FE" transform="translate(133,17)"/>
<path d="M0 0 C3.375 1.875 3.375 1.875 6 4 C6 4.66 6 5.32 6 6 C6.95712891 5.98259766 6.95712891 5.98259766 7.93359375 5.96484375 C8.75988281 5.95582031 9.58617188 5.94679688 10.4375 5.9375 C11.26121094 5.92589844 12.08492188 5.91429687 12.93359375 5.90234375 C15 6 15 6 16 7 C16.41775501 10.09138711 16.29175463 11.55602556 14.5625 14.1875 C11.94887419 16.03616216 10.41798554 16.48435399 7.33984375 17.11328125 C6.52765381 17.28255127 5.71546387 17.45182129 4.87866211 17.6262207 C3.94872437 17.81124146 3.94872437 17.81124146 3 18 C3.05220703 19.97033203 3.05220703 19.97033203 3.10546875 21.98046875 C3.13361466 23.71613301 3.16091396 25.45181115 3.1875 27.1875 C3.21263672 28.05181641 3.23777344 28.91613281 3.26367188 29.80664062 C3.3196852 34.67979971 3.29837988 38.11868497 0 42 C-1.35032235 42.93261563 -2.7267412 43.82842218 -4.125 44.6875 C-7.3800965 47.33450155 -8.26774249 49.40119812 -8.7421875 53.453125 C-9.05624882 57.97211844 -9.07666145 62.4721831 -9 67 C-7.35 67.33 -5.7 67.66 -4 68 C-4 69.98 -4 71.96 -4 74 C-6.40545638 75.20272819 -7.94996953 75.10071472 -10.625 75.0625 C-11.44226563 75.05347656 -12.25953125 75.04445313 -13.1015625 75.03515625 C-13.72804688 75.02355469 -14.35453125 75.01195313 -15 75 C-17.38171031 71.19726926 -17.65510945 67.10996803 -18.125 62.75 C-18.21136719 62.00492188 -18.29773438 61.25984375 -18.38671875 60.4921875 C-18.59786867 58.66222154 -18.79984545 56.83120121 -19 55 C-19.99 54.67 -20.98 54.34 -22 54 C-22 54.66 -22 55.32 -22 56 C-22.598125 56.20625 -23.19625 56.4125 -23.8125 56.625 C-26.8265965 58.51957494 -27.56216305 60.79754498 -29 64 C-29.66 64.99 -30.32 65.98 -31 67 C-28.69 67.33 -26.38 67.66 -24 68 C-24.33 69.65 -24.66 71.3 -25 73 C-33.91 73 -42.82 73 -52 73 C-52.33 71.68 -52.66 70.36 -53 69 C-54.98 69.495 -54.98 69.495 -57 70 C-57 70.66 -57 71.32 -57 72 C-61.95646297 73.65215432 -66.84620368 73.8216197 -72 73 C-74.95226406 71.16774772 -76.5601342 69.14818116 -78 66 C-78.5 62.1875 -78.5 62.1875 -78 59 C-77.34 58.34 -76.68 57.68 -76 57 C-75.01 57 -74.02 57 -73 57 C-72.67 58.134375 -72.34 59.26875 -72 60.4375 C-71.00690823 62.76890115 -70.5441184 63.76091767 -68.1953125 64.79296875 C-64.52374791 65.38180458 -62.47533794 65.22249861 -59.0625 63.625 C-56.37360336 61.72720157 -56.37360336 61.72720157 -55.68359375 58.71484375 C-55.56177734 57.34005859 -55.56177734 57.34005859 -55.4375 55.9375 C-55.35371094 55.01839844 -55.26992188 54.09929687 -55.18359375 53.15234375 C-55.09271484 52.08693359 -55.09271484 52.08693359 -55 51 C-54.34 51 -53.68 51 -53 51 C-52.90332031 50.41347656 -52.80664062 49.82695313 -52.70703125 49.22265625 C-51.11045043 44.20357068 -45.36359447 39.74744837 -41 37 C-40.34 37 -39.68 37 -39 37 C-39 36.34 -39 35.68 -39 35 C-37.96875 34.443125 -36.9375 33.88625 -35.875 33.3125 C-31.10022222 30.57303154 -27.21909686 27.52387108 -23.75 23.1875 C-23.1725 22.465625 -22.595 21.74375 -22 21 C-21.34 21 -20.68 21 -20 21 C-19.7525 20.38125 -19.505 19.7625 -19.25 19.125 C-18 17 -18 17 -14 15 C-14.495 10.545 -14.495 10.545 -15 6 C-13.68 5.34 -12.36 4.68 -11 4 C-11 3.34 -11 2.68 -11 2 C-7.16177822 0.19377799 -4.23634378 -0.51873597 0 0 Z " fill="#F5FBFF" transform="translate(114,46)"/>
<path d="M0 0 C0.66 0.33 1.32 0.66 2 1 C0.90344712 2.31886772 -0.20253423 3.62990057 -1.3125 4.9375 C-1.92738281 5.66839844 -2.54226562 6.39929688 -3.17578125 7.15234375 C-5 9 -5 9 -8 10 C-6.34908222 5.70761377 -3.26245434 3.1206085 0 0 Z " fill="#BBE3FF" transform="translate(69,86)"/>
</svg>
