<?xml version="1.0" encoding="UTF-8"?>
<svg version="1.1" xmlns="http://www.w3.org/2000/svg" width="165" height="228">
<path d="M0 0 C17.51220275 14.26755605 29.02195162 33.37239878 32 56 C33.54718808 78.78341888 28.75062287 100.81086738 13.64257812 118.59814453 C9.32671294 123.46886484 4.79637628 128.13919129 0.27734375 132.8203125 C-18.03586082 152.18538007 -32.03842129 175.29632109 -44 199 C-44.31614258 199.62390625 -44.63228516 200.2478125 -44.95800781 200.890625 C-46.65794687 204.25101139 -48.33932851 207.62004508 -50 211 C-52.54048411 208.7286369 -53.82856083 206.58757113 -55.20703125 203.484375 C-55.82843994 202.11949951 -55.82843994 202.11949951 -56.46240234 200.72705078 C-56.90793457 199.74462402 -57.3534668 198.76219727 -57.8125 197.75 C-69.76578352 172.16585005 -85.95826706 147.47503977 -106.34765625 127.73046875 C-109 125 -109 125 -109 123 C-109.66 123 -110.32 123 -111 123 C-121.84635317 111.40770805 -129.22143619 96.61744487 -132 81 C-132.3403125 79.1128125 -132.3403125 79.1128125 -132.6875 77.1875 C-135.05657135 52.74069988 -129.01335482 31.4594 -113.7578125 12.1640625 C-85.20373062 -21.25825629 -35.10898932 -25.70133196 0 0 Z " fill="#0099FE" transform="translate(133,17)"/>
<path d="M0 0 C1.1099659 -0.01354271 1.1099659 -0.01354271 2.24235535 -0.02735901 C3.81004788 -0.04187764 5.37780123 -0.05075226 6.94555664 -0.05444336 C9.33650001 -0.06631209 11.72483833 -0.11545003 14.11523438 -0.16601562 C15.63931034 -0.1754833 17.16340214 -0.18271669 18.6875 -0.1875 C19.75494194 -0.21679848 19.75494194 -0.21679848 20.84394836 -0.24668884 C24.75223508 -0.21143959 26.42224092 0.27634245 29.53393555 2.71850586 C31.54296875 5.37109375 31.54296875 5.37109375 31.54296875 8.37109375 C37.12797442 8.17210667 37.12797442 8.17210667 41.54296875 5.37109375 C42.53296875 5.37109375 43.52296875 5.37109375 44.54296875 5.37109375 C46.1502251 8.58560644 45.6004506 11.80721911 45.54296875 15.37109375 C43.60546875 15.93359375 43.60546875 15.93359375 41.54296875 16.37109375 C41.04796875 15.87609375 41.04796875 15.87609375 40.54296875 15.37109375 C39.02827427 15.1391651 37.50542313 14.95894137 35.98046875 14.80859375 C35.15417969 14.72480469 34.32789063 14.64101563 33.4765625 14.5546875 C32.83847656 14.49410156 32.20039062 14.43351562 31.54296875 14.37109375 C30.88296875 16.35109375 30.22296875 18.33109375 29.54296875 20.37109375 C28.88296875 20.37109375 28.22296875 20.37109375 27.54296875 20.37109375 C27.54296875 21.03109375 27.54296875 21.69109375 27.54296875 22.37109375 C22.61339616 22.44523696 17.68414794 22.49969192 12.75415039 22.53588867 C11.07700955 22.55097759 9.39990818 22.57145123 7.72290039 22.59741211 C5.31256371 22.63379186 2.90274856 22.65081861 0.4921875 22.6640625 C-0.25791092 22.67954636 -1.00800934 22.69503021 -1.78083801 22.71098328 C-6.96280765 22.71265951 -6.96280765 22.71265951 -9.41088867 21.02075195 C-10.77582034 18.86839647 -11.11834978 16.87733664 -11.45703125 14.37109375 C-12.87405638 14.51340183 -14.29064085 14.66010121 -15.70703125 14.80859375 C-16.4959375 14.88980469 -17.28484375 14.97101562 -18.09765625 15.0546875 C-20.45582335 15.31981184 -20.45582335 15.31981184 -22.69140625 15.96875 C-23.2740625 16.10152344 -23.85671875 16.23429687 -24.45703125 16.37109375 C-25.45703125 15.37109375 -25.45703125 15.37109375 -25.5546875 13.5234375 C-25.52213542 11.47265625 -25.48958333 9.421875 -25.45703125 7.37109375 C-23.80703125 7.04109375 -22.15703125 6.71109375 -20.45703125 6.37109375 C-20.45703125 7.03109375 -20.45703125 7.69109375 -20.45703125 8.37109375 C-17.48703125 8.37109375 -14.51703125 8.37109375 -11.45703125 8.37109375 C-11.16828125 7.42234375 -10.87953125 6.47359375 -10.58203125 5.49609375 C-8.48020313 -0.3423177 -5.56153841 0.04155614 0 0 Z " fill="#F5FBFF" transform="translate(72.45703125,48.62890625)"/>
<path d="M0 0 C5.61 0 11.22 0 17 0 C17.16141457 4.16603312 17.30041897 8.32111407 17.38452148 12.48779297 C17.4195835 13.90223038 17.46725128 15.31641658 17.52807617 16.72998047 C18.0190473 28.43902295 18.0190473 28.43902295 15.50292969 32.29321289 C12.80107339 34.69073922 11.01189986 35.92772144 7.375 36.1875 C4.15351735 34.57675867 2.3057703 32.77462838 0 30 C-0.56762695 26.6784668 -0.56762695 26.6784668 -0.48828125 22.94921875 C-0.48120651 22.29041214 -0.47413177 21.63160553 -0.46684265 20.95283508 C-0.43900979 18.86319966 -0.37630819 16.77631524 -0.3125 14.6875 C-0.28740205 13.26501286 -0.26459148 11.84248341 -0.24414062 10.41992188 C-0.19348172 6.9447209 -0.09565354 3.47541187 0 0 Z " fill="#F1F9FF" transform="translate(74,101)"/>
<path d="M0 0 C10.89 0 21.78 0 33 0 C33 1.65 33 3.3 33 5 C32.01 5.33 31.02 5.66 30 6 C29.67 6.99 29.34 7.98 29 9 C25.10441912 9.11643304 21.20928742 9.18732909 17.3125 9.25 C16.20970703 9.28351563 15.10691406 9.31703125 13.97070312 9.3515625 C5.8629947 9.44954085 5.8629947 9.44954085 1.73046875 7.296875 C0 5 0 5 0 0 Z " fill="#DEF2FF" transform="translate(66,76)"/>
<path d="M0 0 C6.93 0 13.86 0 21 0 C21 1.65 21 3.3 21 5 C19.44393249 6.55606751 17.94042629 6.12970769 15.78125 6.1328125 C14.50701172 6.13474609 14.50701172 6.13474609 13.20703125 6.13671875 C11.86705078 6.13091797 11.86705078 6.13091797 10.5 6.125 C9.60667969 6.12886719 8.71335937 6.13273437 7.79296875 6.13671875 C6.94347656 6.13542969 6.09398438 6.13414063 5.21875 6.1328125 C4.43435547 6.13168457 3.64996094 6.13055664 2.84179688 6.12939453 C1 6 1 6 0 5 C0 3.35 0 1.7 0 0 Z " fill="#E5F5FF" transform="translate(72,90)"/>
<path d="M0 0 C1.134375 0.020625 2.26875 0.04125 3.4375 0.0625 C4.0975 1.3825 4.7575 2.7025 5.4375 4.0625 C3.4375 6.0625 3.4375 6.0625 -0.1875 6.1875 C-1.30125 6.14625 -2.415 6.105 -3.5625 6.0625 C-3.94468767 4.40635343 -4.27645102 2.73792976 -4.5625 1.0625 C-3.5625 0.0625 -3.5625 0.0625 0 0 Z " fill="#27A8FF" transform="translate(70.5625,56.9375)"/>
<path d="M0 0 C1.65 0.33 3.3 0.66 5 1 C4.67 2.65 4.34 4.3 4 6 C2.35 5.67 0.7 5.34 -1 5 C-0.67 3.35 -0.34 1.7 0 0 Z " fill="#45B4FF" transform="translate(94,57)"/>
<path d="M0 0 C1.98 0.495 1.98 0.495 4 1 C3.67 2.65 3.34 4.3 3 6 C1.68 5.67 0.36 5.34 -1 5 C-0.67 3.35 -0.34 1.7 0 0 Z " fill="#2FABFF" transform="translate(84,57)"/>
</svg>
