<?xml version="1.0" encoding="UTF-8"?>
<svg version="1.1" xmlns="http://www.w3.org/2000/svg" width="110" height="110">
<path d="M0 0 C1.09828125 -0.01546875 2.1965625 -0.0309375 3.328125 -0.046875 C17.36114274 0.01963219 29.20948634 5.63218414 39.25 15.3125 C43.46503221 19.74520993 47.06913998 24.12530715 50 29.5 C50.72896484 30.75683594 50.72896484 30.75683594 51.47265625 32.0390625 C57.44765129 44.38849514 57.62425339 62.24380871 53.25048828 75.15795898 C50.39199807 82.17399953 46.22339529 88.06803163 41 93.5 C39.7625 94.79744141 39.7625 94.79744141 38.5 96.12109375 C27.14894987 107.22466459 15.8221149 110.68393776 0.4375 110.8125 C-0.69236328 110.84150391 -1.82222656 110.87050781 -2.98632812 110.90039062 C-18.04020086 111.01305634 -28.84515115 104.92623706 -39.61328125 94.8671875 C-51.16971011 83.40532843 -55.57566726 71.5821957 -55.75 55.5 C-55.59069422 40.80404166 -52.18334147 29.48330673 -42 18.5 C-41.38253906 17.80390625 -40.76507813 17.1078125 -40.12890625 16.390625 C-29.22190565 4.71552577 -15.76641045 -0.22206212 0 0 Z M-12 31.5 C-14.09173122 36.11854254 -14.29873316 39.42807513 -12.9375 44.3125 C-10.56559445 48.21466719 -8.06635336 50.46682332 -4 52.5 C2.10685229 53.00890436 5.12959772 52.5775461 10 48.5 C13.29487979 45.20512021 13.84373757 42.1097416 14 37.5 C12.64681461 32.88324985 10.8008263 29.32617634 6.8671875 26.390625 C-0.30499178 22.96958551 -7.51745682 25.17780038 -12 31.5 Z M-17 57.5 C-23.49080208 62.50903089 -28.83660201 67.77851286 -30.5234375 76.07421875 C-30.77128081 78.20768072 -30.89783911 80.35462138 -31 82.5 C-21.23814844 85.04682221 -12.22176798 85.97874753 -2.18652344 85.89111328 C-0.00131869 85.87500972 2.18203769 85.89107411 4.3671875 85.91015625 C13.63482591 85.9218815 21.99148372 84.85028049 31 82.5 C30.29130366 72.70744727 27.16588664 66.34226595 20 59.5 C18.3002846 57.86103748 18.3002846 57.86103748 16 57.5 C14.31051754 58.47605351 12.6246314 59.46021537 10.97607422 60.50390625 C7.45745964 62.27755926 3.92966618 62.07832235 0.0625 62 C-0.69740234 62.01546875 -1.45730469 62.0309375 -2.24023438 62.046875 C-8.11372643 62.00674867 -11.91818627 60.41380446 -17 57.5 Z " fill="#CDCDCD" transform="translate(55,-0.5)"/>
</svg>
